# xmcd
#
# Track frame offsets: 
#        150
#        10443
#        21390
#        33295
#        47178
#        79670
#        92253
#        107948
#        123498
#        134038
#
# Disc length: 1988 seconds
#
# Revision: 4
# Processed by: cddbd v1.5.2PL0 Copyright (c) Steve Scherf et al.
# Submitted via: ExactAudioCopyFreeDBPlugin 1.0
#
DISCID=8207c20a
DTITLE=Country Joe McDonald - Thinking Of Woody Guthrie
DYEAR=1969
DGENRE=Country
TTITLE0=Pastures Of Plenty
TTITLE1=Talkin' Dust Bolw
TTITLE2=Blowing Down That Dusty Road
TTITLE3=So Long It's Been Good To Know Yuh
TTITLE4=Tom Joad
TTITLE5=The Sinking Of The Reuben James
TTITLE6=Roll On Columbia
TTITLE7=Pretty Boy Floyd
TTITLE8=When The Curfew Blows
TTITLE9=This Land Is Your Land
EXTD=
EXTT0=
EXTT1=
EXTT2=
EXTT3=
EXTT4=
EXTT5=
EXTT6=
EXTT7=
EXTT8=
EXTT9=
PLAYORDER=
